<mxfile host="drawio-plugin" modified="2021-11-01T10:34:42.935Z" agent="5.0 (Macintosh; Intel Mac OS X 11_2_3) AppleWebKit/537.36 (KHTML, like Gecko) Chrome/89.0.4389.114 Safari/537.36" etag="rwJbhbDW6ruIrv-i9BSt" version="14.7.4" type="embed" pages="2"><diagram id="ANUzTFV-o2zH4lqMVVwA" name="Hashmap-put"><mxGraphModel dx="1980" dy="503" grid="1" gridSize="10" guides="1" tooltips="1" connect="1" arrows="1" fold="1" page="1" pageScale="1" pageWidth="850" pageHeight="1100" math="0" shadow="0"><root><mxCell id="hXSN7TcEU8yFB1X6zQ0F-0"/><mxCell id="hXSN7TcEU8yFB1X6zQ0F-1" parent="hXSN7TcEU8yFB1X6zQ0F-0"/><UserObject label="" link="data:page/id,vIPnuK99S6TiglqPnjMj" id="32"><mxCell style="group" parent="hXSN7TcEU8yFB1X6zQ0F-1" vertex="1" connectable="0"><mxGeometry x="-330" y="80" width="1590" height="1210" as="geometry"/></mxCell></UserObject><mxCell id="19" value="" style="rounded=0;whiteSpace=wrap;html=1;dashed=1;strokeColor=#6F0000;fontColor=#ffffff;fillColor=none;strokeWidth=2;" parent="32" vertex="1"><mxGeometry x="470" y="95" width="180" height="90" as="geometry"/></mxCell><mxCell id="28" value="" style="rounded=0;whiteSpace=wrap;html=1;dashed=1;strokeColor=#6F0000;fontColor=#ffffff;fillColor=none;strokeWidth=2;" parent="32" vertex="1"><mxGeometry x="310" y="470" width="910" height="220" as="geometry"/></mxCell><mxCell id="0" value="" style="shape=waypoint;sketch=0;size=6;pointerEvents=1;points=[];fillColor=none;resizable=0;rotatable=0;perimeter=centerPerimeter;snapToPoint=1;" parent="32" vertex="1"><mxGeometry x="540" width="40" height="40" as="geometry"/></mxCell><mxCell id="1" value="hash(key)" style="whiteSpace=wrap;html=1;fillColor=none;sketch=0;strokeColor=#FFFFFF;" parent="32" vertex="1"><mxGeometry x="500" y="110" width="120" height="60" as="geometry"/></mxCell><mxCell id="2" value="" style="edgeStyle=orthogonalEdgeStyle;rounded=0;orthogonalLoop=1;jettySize=auto;html=1;" parent="32" source="0" target="1" edge="1"><mxGeometry relative="1" as="geometry"/></mxCell><mxCell id="4" value="put(key,value)方法调用" style="edgeLabel;html=1;align=center;verticalAlign=middle;resizable=0;points=[];" parent="2" vertex="1" connectable="0"><mxGeometry x="-0.1778" relative="1" as="geometry"><mxPoint as="offset"/></mxGeometry></mxCell><mxCell id="3" value="开始" style="text;html=1;align=center;verticalAlign=middle;resizable=0;points=[];autosize=1;strokeColor=none;" parent="32" vertex="1"><mxGeometry x="540" width="40" height="20" as="geometry"/></mxCell><mxCell id="11" value="" style="edgeStyle=orthogonalEdgeStyle;rounded=0;orthogonalLoop=1;jettySize=auto;html=1;" parent="32" source="7" edge="1"><mxGeometry relative="1" as="geometry"><mxPoint x="460" y="260" as="targetPoint"/></mxGeometry></mxCell><mxCell id="14" value="N" style="edgeLabel;html=1;align=center;verticalAlign=middle;resizable=0;points=[];" parent="11" vertex="1" connectable="0"><mxGeometry x="-0.1667" y="4" relative="1" as="geometry"><mxPoint as="offset"/></mxGeometry></mxCell><mxCell id="13" value="Y" style="edgeStyle=orthogonalEdgeStyle;rounded=0;orthogonalLoop=1;jettySize=auto;html=1;" parent="32" source="7" edge="1"><mxGeometry relative="1" as="geometry"><mxPoint x="660" y="260" as="targetPoint"/></mxGeometry></mxCell><mxCell id="7" value="Y/N" style="rhombus;whiteSpace=wrap;html=1;strokeColor=#FFFFFF;fillColor=none;sketch=0;" parent="32" vertex="1"><mxGeometry x="520" y="240" width="80" height="40" as="geometry"/></mxCell><mxCell id="8" value="" style="edgeStyle=orthogonalEdgeStyle;rounded=0;orthogonalLoop=1;jettySize=auto;html=1;" parent="32" source="1" target="7" edge="1"><mxGeometry relative="1" as="geometry"/></mxCell><mxCell id="9" value="判断table是否为空" style="edgeLabel;html=1;align=center;verticalAlign=middle;resizable=0;points=[];" parent="8" vertex="1" connectable="0"><mxGeometry x="-0.1429" y="2" relative="1" as="geometry"><mxPoint as="offset"/></mxGeometry></mxCell><UserObject label="resize()流程" link="data:page/id,vIPnuK99S6TiglqPnjMj" id="15"><mxCell style="shape=process;whiteSpace=wrap;html=1;backgroundOutline=1;strokeColor=#FFFFFF;" parent="32" vertex="1"><mxGeometry x="660" y="230" width="120" height="60" as="geometry"/></mxCell></UserObject><mxCell id="17" value="计算存储位置&lt;br&gt;(lenght-1) &amp;amp; hash" style="whiteSpace=wrap;html=1;strokeColor=#FFFFFF;" parent="32" vertex="1"><mxGeometry x="340" y="230" width="120" height="60" as="geometry"/></mxCell><mxCell id="5s1BcYf6EuzTTSZZ5iex-20" style="edgeStyle=orthogonalEdgeStyle;rounded=0;orthogonalLoop=1;jettySize=auto;html=1;entryX=0.5;entryY=1;entryDx=0;entryDy=0;" parent="32" source="15" target="17" edge="1"><mxGeometry relative="1" as="geometry"><Array as="points"><mxPoint x="720" y="310"/><mxPoint x="400" y="310"/></Array></mxGeometry></mxCell><mxCell id="5s1BcYf6EuzTTSZZ5iex-17" value="1. 为空直接赋值&lt;br&gt;2. 不为空再判断" style="whiteSpace=wrap;html=1;strokeColor=#FFFFFF;" parent="32" vertex="1"><mxGeometry x="340" y="370" width="120" height="60" as="geometry"/></mxCell><mxCell id="5s1BcYf6EuzTTSZZ5iex-18" value="" style="edgeStyle=orthogonalEdgeStyle;rounded=0;orthogonalLoop=1;jettySize=auto;html=1;" parent="32" source="17" target="5s1BcYf6EuzTTSZZ5iex-17" edge="1"><mxGeometry relative="1" as="geometry"/></mxCell><mxCell id="5s1BcYf6EuzTTSZZ5iex-19" value="判断tab[i]是否为空" style="edgeLabel;html=1;align=center;verticalAlign=middle;resizable=0;points=[];" parent="5s1BcYf6EuzTTSZZ5iex-18" vertex="1" connectable="0"><mxGeometry x="-0.05" y="3" relative="1" as="geometry"><mxPoint as="offset"/></mxGeometry></mxCell><mxCell id="5s1BcYf6EuzTTSZZ5iex-21" value="1/2/3" style="rhombus;whiteSpace=wrap;html=1;strokeColor=#FFFFFF;" parent="32" vertex="1"><mxGeometry x="360" y="500" width="80" height="40" as="geometry"/></mxCell><mxCell id="5s1BcYf6EuzTTSZZ5iex-22" value="" style="edgeStyle=orthogonalEdgeStyle;rounded=0;orthogonalLoop=1;jettySize=auto;html=1;" parent="32" source="5s1BcYf6EuzTTSZZ5iex-17" target="5s1BcYf6EuzTTSZZ5iex-21" edge="1"><mxGeometry relative="1" as="geometry"/></mxCell><mxCell id="5s1BcYf6EuzTTSZZ5iex-29" value="不为空时又分为3种场景" style="edgeLabel;html=1;align=center;verticalAlign=middle;resizable=0;points=[];" parent="5s1BcYf6EuzTTSZZ5iex-22" vertex="1" connectable="0"><mxGeometry y="3" relative="1" as="geometry"><mxPoint as="offset"/></mxGeometry></mxCell><mxCell id="5s1BcYf6EuzTTSZZ5iex-23" value="记录相同元素e" style="whiteSpace=wrap;html=1;strokeColor=#FFFFFF;" parent="32" vertex="1"><mxGeometry y="490" width="120" height="60" as="geometry"/></mxCell><mxCell id="5s1BcYf6EuzTTSZZ5iex-24" value="" style="edgeStyle=orthogonalEdgeStyle;rounded=0;orthogonalLoop=1;jettySize=auto;html=1;" parent="32" source="5s1BcYf6EuzTTSZZ5iex-21" target="5s1BcYf6EuzTTSZZ5iex-23" edge="1"><mxGeometry relative="1" as="geometry"/></mxCell><mxCell id="5s1BcYf6EuzTTSZZ5iex-31" value="1(与数组元素相等)" style="edgeLabel;html=1;align=center;verticalAlign=middle;resizable=0;points=[];" parent="5s1BcYf6EuzTTSZZ5iex-24" vertex="1" connectable="0"><mxGeometry x="0.1333" relative="1" as="geometry"><mxPoint as="offset"/></mxGeometry></mxCell><mxCell id="5s1BcYf6EuzTTSZZ5iex-25" value="插入到RB树中，并可能返回相同元素e" style="whiteSpace=wrap;html=1;strokeColor=#FFFFFF;" parent="32" vertex="1"><mxGeometry x="340" y="610" width="120" height="60" as="geometry"/></mxCell><mxCell id="5s1BcYf6EuzTTSZZ5iex-26" value="" style="edgeStyle=orthogonalEdgeStyle;rounded=0;orthogonalLoop=1;jettySize=auto;html=1;" parent="32" source="5s1BcYf6EuzTTSZZ5iex-21" target="5s1BcYf6EuzTTSZZ5iex-25" edge="1"><mxGeometry relative="1" as="geometry"/></mxCell><mxCell id="5s1BcYf6EuzTTSZZ5iex-32" value="2(数组元素类型为RB树)" style="edgeLabel;html=1;align=center;verticalAlign=middle;resizable=0;points=[];" parent="5s1BcYf6EuzTTSZZ5iex-26" vertex="1" connectable="0"><mxGeometry x="-0.0571" relative="1" as="geometry"><mxPoint as="offset"/></mxGeometry></mxCell><mxCell id="5s1BcYf6EuzTTSZZ5iex-27" value="插入到链表中，并可能返回相同元素e" style="whiteSpace=wrap;html=1;strokeColor=#FFFFFF;" parent="32" vertex="1"><mxGeometry x="630" y="490" width="120" height="60" as="geometry"/></mxCell><mxCell id="5s1BcYf6EuzTTSZZ5iex-28" value="" style="edgeStyle=orthogonalEdgeStyle;rounded=0;orthogonalLoop=1;jettySize=auto;html=1;" parent="32" source="5s1BcYf6EuzTTSZZ5iex-21" target="5s1BcYf6EuzTTSZZ5iex-27" edge="1"><mxGeometry relative="1" as="geometry"/></mxCell><mxCell id="5s1BcYf6EuzTTSZZ5iex-36" value="3(只有可能往链表中插入了)" style="edgeLabel;html=1;align=center;verticalAlign=middle;resizable=0;points=[];" parent="5s1BcYf6EuzTTSZZ5iex-28" vertex="1" connectable="0"><mxGeometry x="-0.4235" y="-2" relative="1" as="geometry"><mxPoint x="41" y="-2" as="offset"/></mxGeometry></mxCell><mxCell id="5s1BcYf6EuzTTSZZ5iex-35" value="&lt;span&gt;hash相等 &amp;amp;&amp;amp; key相等 &amp;amp;&amp;amp; equal相等&lt;/span&gt;" style="text;html=1;align=center;verticalAlign=middle;resizable=0;points=[];autosize=1;strokeColor=none;" parent="32" vertex="1"><mxGeometry x="120" y="490" width="210" height="20" as="geometry"/></mxCell><mxCell id="5s1BcYf6EuzTTSZZ5iex-42" value="Y/N" style="rhombus;whiteSpace=wrap;html=1;strokeColor=#FFFFFF;" parent="32" vertex="1"><mxGeometry x="900" y="480" width="80" height="80" as="geometry"/></mxCell><mxCell id="5s1BcYf6EuzTTSZZ5iex-40" value="" style="edgeStyle=orthogonalEdgeStyle;rounded=0;orthogonalLoop=1;jettySize=auto;html=1;entryX=0;entryY=0.5;entryDx=0;entryDy=0;" parent="32" source="5s1BcYf6EuzTTSZZ5iex-27" target="5s1BcYf6EuzTTSZZ5iex-42" edge="1"><mxGeometry relative="1" as="geometry"><mxPoint x="830" y="520" as="targetPoint"/></mxGeometry></mxCell><mxCell id="5s1BcYf6EuzTTSZZ5iex-41" value="遍历链表(判断是否有相同)" style="edgeLabel;html=1;align=center;verticalAlign=middle;resizable=0;points=[];" parent="5s1BcYf6EuzTTSZZ5iex-40" vertex="1" connectable="0"><mxGeometry x="-0.175" y="-1" relative="1" as="geometry"><mxPoint as="offset"/></mxGeometry></mxCell><mxCell id="5s1BcYf6EuzTTSZZ5iex-44" value="&lt;span&gt;记录相同元素e&lt;/span&gt;" style="whiteSpace=wrap;html=1;strokeColor=#FFFFFF;" parent="32" vertex="1"><mxGeometry x="880" y="620" width="120" height="60" as="geometry"/></mxCell><mxCell id="5s1BcYf6EuzTTSZZ5iex-45" value="" style="edgeStyle=orthogonalEdgeStyle;rounded=0;orthogonalLoop=1;jettySize=auto;html=1;" parent="32" source="5s1BcYf6EuzTTSZZ5iex-42" target="5s1BcYf6EuzTTSZZ5iex-44" edge="1"><mxGeometry relative="1" as="geometry"/></mxCell><mxCell id="5s1BcYf6EuzTTSZZ5iex-46" value="Y(&lt;span style=&quot;font-size: 12px&quot;&gt;hash相等 &amp;amp;&amp;amp; key相等 &amp;amp;&amp;amp; equal相等&lt;/span&gt;)" style="edgeLabel;html=1;align=center;verticalAlign=middle;resizable=0;points=[];" parent="5s1BcYf6EuzTTSZZ5iex-45" vertex="1" connectable="0"><mxGeometry x="-0.1111" y="-2" relative="1" as="geometry"><mxPoint as="offset"/></mxGeometry></mxCell><mxCell id="5s1BcYf6EuzTTSZZ5iex-47" value="插入成功后判断是否达到转RB树阀值(8)" style="whiteSpace=wrap;html=1;strokeColor=#FFFFFF;" parent="32" vertex="1"><mxGeometry x="1090" y="490" width="120" height="60" as="geometry"/></mxCell><mxCell id="5s1BcYf6EuzTTSZZ5iex-48" value="" style="edgeStyle=orthogonalEdgeStyle;rounded=0;orthogonalLoop=1;jettySize=auto;html=1;" parent="32" source="5s1BcYf6EuzTTSZZ5iex-42" target="5s1BcYf6EuzTTSZZ5iex-47" edge="1"><mxGeometry relative="1" as="geometry"/></mxCell><mxCell id="5s1BcYf6EuzTTSZZ5iex-49" value="N(插入链表尾部)" style="edgeLabel;html=1;align=center;verticalAlign=middle;resizable=0;points=[];" parent="5s1BcYf6EuzTTSZZ5iex-48" vertex="1" connectable="0"><mxGeometry x="-0.2667" relative="1" as="geometry"><mxPoint x="10" as="offset"/></mxGeometry></mxCell><mxCell id="5s1BcYf6EuzTTSZZ5iex-55" value="N" style="edgeStyle=orthogonalEdgeStyle;rounded=0;orthogonalLoop=1;jettySize=auto;html=1;" parent="32" source="5s1BcYf6EuzTTSZZ5iex-52" edge="1"><mxGeometry relative="1" as="geometry"><mxPoint x="1470" y="520" as="targetPoint"/></mxGeometry></mxCell><mxCell id="5s1BcYf6EuzTTSZZ5iex-52" value="Y/N" style="rhombus;whiteSpace=wrap;html=1;strokeColor=#FFFFFF;" parent="32" vertex="1"><mxGeometry x="1390" y="480" width="40" height="80" as="geometry"/></mxCell><mxCell id="5s1BcYf6EuzTTSZZ5iex-51" value="" style="edgeStyle=orthogonalEdgeStyle;rounded=0;orthogonalLoop=1;jettySize=auto;html=1;entryX=0;entryY=0.5;entryDx=0;entryDy=0;" parent="32" source="5s1BcYf6EuzTTSZZ5iex-47" target="5s1BcYf6EuzTTSZZ5iex-52" edge="1"><mxGeometry relative="1" as="geometry"><mxPoint x="1290" y="520" as="targetPoint"/></mxGeometry></mxCell><mxCell id="5s1BcYf6EuzTTSZZ5iex-53" value="转RB树(容量是否大于64)" style="edgeLabel;html=1;align=center;verticalAlign=middle;resizable=0;points=[];" parent="5s1BcYf6EuzTTSZZ5iex-51" vertex="1" connectable="0"><mxGeometry x="-0.0556" y="-1" relative="1" as="geometry"><mxPoint as="offset"/></mxGeometry></mxCell><mxCell id="5s1BcYf6EuzTTSZZ5iex-56" value="resize()扩容" style="shape=process;whiteSpace=wrap;html=1;backgroundOutline=1;strokeColor=#FFFFFF;" parent="32" vertex="1"><mxGeometry x="1470" y="490" width="120" height="60" as="geometry"/></mxCell><mxCell id="5s1BcYf6EuzTTSZZ5iex-57" value="转RB树" style="whiteSpace=wrap;html=1;strokeColor=#FFFFFF;" parent="32" vertex="1"><mxGeometry x="1350" y="650" width="120" height="60" as="geometry"/></mxCell><mxCell id="5s1BcYf6EuzTTSZZ5iex-58" value="" style="edgeStyle=orthogonalEdgeStyle;rounded=0;orthogonalLoop=1;jettySize=auto;html=1;" parent="32" source="5s1BcYf6EuzTTSZZ5iex-52" target="5s1BcYf6EuzTTSZZ5iex-57" edge="1"><mxGeometry relative="1" as="geometry"/></mxCell><mxCell id="5s1BcYf6EuzTTSZZ5iex-59" value="Y" style="edgeLabel;html=1;align=center;verticalAlign=middle;resizable=0;points=[];" parent="5s1BcYf6EuzTTSZZ5iex-58" vertex="1" connectable="0"><mxGeometry x="-0.3111" y="2" relative="1" as="geometry"><mxPoint as="offset"/></mxGeometry></mxCell><mxCell id="5s1BcYf6EuzTTSZZ5iex-62" value="是否存在&lt;br&gt;相同值e" style="rhombus;whiteSpace=wrap;html=1;strokeColor=#FFFFFF;" parent="32" vertex="1"><mxGeometry x="360" y="740" width="80" height="80" as="geometry"/></mxCell><mxCell id="5s1BcYf6EuzTTSZZ5iex-63" value="" style="edgeStyle=orthogonalEdgeStyle;rounded=0;orthogonalLoop=1;jettySize=auto;html=1;" parent="32" source="5s1BcYf6EuzTTSZZ5iex-23" target="5s1BcYf6EuzTTSZZ5iex-62" edge="1"><mxGeometry relative="1" as="geometry"><Array as="points"><mxPoint x="50" y="780"/></Array></mxGeometry></mxCell><mxCell id="5s1BcYf6EuzTTSZZ5iex-64" style="edgeStyle=orthogonalEdgeStyle;rounded=0;orthogonalLoop=1;jettySize=auto;html=1;entryX=0.5;entryY=0;entryDx=0;entryDy=0;" parent="32" source="5s1BcYf6EuzTTSZZ5iex-25" target="5s1BcYf6EuzTTSZZ5iex-62" edge="1"><mxGeometry relative="1" as="geometry"/></mxCell><mxCell id="5s1BcYf6EuzTTSZZ5iex-65" style="edgeStyle=orthogonalEdgeStyle;rounded=0;orthogonalLoop=1;jettySize=auto;html=1;entryX=1;entryY=0.5;entryDx=0;entryDy=0;" parent="32" source="5s1BcYf6EuzTTSZZ5iex-44" target="5s1BcYf6EuzTTSZZ5iex-62" edge="1"><mxGeometry relative="1" as="geometry"><Array as="points"><mxPoint x="940" y="780"/></Array></mxGeometry></mxCell><mxCell id="5s1BcYf6EuzTTSZZ5iex-67" value="直接覆盖value值" style="whiteSpace=wrap;html=1;strokeColor=#FFFFFF;" parent="32" vertex="1"><mxGeometry x="340" y="910" width="120" height="60" as="geometry"/></mxCell><mxCell id="5s1BcYf6EuzTTSZZ5iex-68" value="" style="edgeStyle=orthogonalEdgeStyle;rounded=0;orthogonalLoop=1;jettySize=auto;html=1;" parent="32" source="5s1BcYf6EuzTTSZZ5iex-62" target="5s1BcYf6EuzTTSZZ5iex-67" edge="1"><mxGeometry relative="1" as="geometry"/></mxCell><mxCell id="5s1BcYf6EuzTTSZZ5iex-69" value="Y(存在)" style="edgeLabel;html=1;align=center;verticalAlign=middle;resizable=0;points=[];" parent="5s1BcYf6EuzTTSZZ5iex-68" vertex="1" connectable="0"><mxGeometry x="-0.3333" y="-1" relative="1" as="geometry"><mxPoint as="offset"/></mxGeometry></mxCell><mxCell id="5s1BcYf6EuzTTSZZ5iex-73" value="" style="edgeStyle=orthogonalEdgeStyle;rounded=0;orthogonalLoop=1;jettySize=auto;html=1;" parent="32" source="5s1BcYf6EuzTTSZZ5iex-70" edge="1"><mxGeometry relative="1" as="geometry"><mxPoint x="400" y="1190" as="targetPoint"/></mxGeometry></mxCell><mxCell id="5s1BcYf6EuzTTSZZ5iex-70" value="判断是否超过阀值" style="whiteSpace=wrap;html=1;strokeColor=#FFFFFF;" parent="32" vertex="1"><mxGeometry x="340" y="1050" width="120" height="60" as="geometry"/></mxCell><mxCell id="5s1BcYf6EuzTTSZZ5iex-71" value="" style="edgeStyle=orthogonalEdgeStyle;rounded=0;orthogonalLoop=1;jettySize=auto;html=1;" parent="32" source="5s1BcYf6EuzTTSZZ5iex-67" target="5s1BcYf6EuzTTSZZ5iex-70" edge="1"><mxGeometry relative="1" as="geometry"/></mxCell><mxCell id="5s1BcYf6EuzTTSZZ5iex-74" value="" style="shape=waypoint;size=6;pointerEvents=1;points=[];fillColor=#2a2a2a;resizable=0;rotatable=0;perimeter=centerPerimeter;snapToPoint=1;strokeColor=#FFFFFF;" parent="32" vertex="1"><mxGeometry x="380" y="1170" width="40" height="40" as="geometry"/></mxCell><mxCell id="5s1BcYf6EuzTTSZZ5iex-76" value="结束" style="text;html=1;align=center;verticalAlign=middle;resizable=0;points=[];autosize=1;strokeColor=none;" parent="32" vertex="1"><mxGeometry x="380" y="1190" width="40" height="20" as="geometry"/></mxCell><mxCell id="26" value="jdk7 &amp;amp; jdk8 hash计算时存在区别：&lt;br&gt;&lt;div&gt;jdk 1.7 做了9次扰动处理 = 4次位运算 + 5次异或运算&lt;/div&gt;&lt;div&gt;jdk 1.8 简化了扰动函数 = 只做了2次扰动 = 1次位运算 + 1次异或运算；减少hash的过程&lt;/div&gt;" style="whiteSpace=wrap;html=1;align=left;verticalAlign=top;dashed=1;" parent="32" vertex="1"><mxGeometry x="710" y="10" width="480" height="60" as="geometry"/></mxCell><mxCell id="27" value="" style="endArrow=none;dashed=1;html=1;dashPattern=1 3;strokeWidth=2;exitX=1.011;exitY=0.433;exitDx=0;exitDy=0;exitPerimeter=0;" parent="32" source="19" edge="1"><mxGeometry width="50" height="50" relative="1" as="geometry"><mxPoint x="720" y="110" as="sourcePoint"/><mxPoint x="770" y="60" as="targetPoint"/></mxGeometry></mxCell><mxCell id="30" value="jdk7 &amp;amp; jdk8当发生hash冲突时，数据存储的结构和位置：&lt;br&gt;jdk7 hash冲突时存储的结构是单向链表，并且是头部插入(这种插入方式在多线程下会产生环形链表和逆序)&amp;nbsp;&amp;nbsp;&lt;br&gt;jdk8 当链表&amp;gt;8 &amp;amp;&amp;amp;&amp;nbsp;容量&amp;gt;64时会转换RB&lt;b&gt;&lt;font color=&quot;#ff0000&quot;&gt;树存储&lt;/font&gt;&lt;/b&gt;，并且是&lt;font color=&quot;#ff0000&quot;&gt;尾部插入&lt;/font&gt;解决jdk7问题" style="whiteSpace=wrap;html=1;align=left;verticalAlign=top;dashed=1;" parent="32" vertex="1"><mxGeometry x="630" y="370" width="580" height="60" as="geometry"/></mxCell><mxCell id="31" value="" style="endArrow=none;dashed=1;html=1;dashPattern=1 3;strokeWidth=2;exitX=0.495;exitY=0;exitDx=0;exitDy=0;exitPerimeter=0;" parent="32" source="28" edge="1"><mxGeometry width="50" height="50" relative="1" as="geometry"><mxPoint x="660" y="450" as="sourcePoint"/><mxPoint x="710" y="400" as="targetPoint"/></mxGeometry></mxCell></root></mxGraphModel></diagram><diagram id="vIPnuK99S6TiglqPnjMj" name="HashMap-resize"><mxGraphModel dx="1356" dy="604" grid="1" gridSize="10" guides="1" tooltips="1" connect="1" arrows="1" fold="1" page="1" pageScale="1" pageWidth="850" pageHeight="1100" math="0" shadow="0"><root><mxCell id="kbx1OfWRaRbHtbZIPdZr-0"/><mxCell id="kbx1OfWRaRbHtbZIPdZr-1" parent="kbx1OfWRaRbHtbZIPdZr-0"/><mxCell id="z9f0-zLGg7tkhhjZOtWm-3" value="" style="edgeStyle=orthogonalEdgeStyle;rounded=0;orthogonalLoop=1;jettySize=auto;html=1;" parent="kbx1OfWRaRbHtbZIPdZr-1" source="z9f0-zLGg7tkhhjZOtWm-0" edge="1"><mxGeometry relative="1" as="geometry"><mxPoint x="370" y="390" as="targetPoint"/></mxGeometry></mxCell><mxCell id="2Zp4h0rLKAz4HDLWAaMG-1" value="扩容判断(分析put方法时会发现有初次插入调用resize和容量不足调用两种情况)" style="edgeLabel;html=1;align=center;verticalAlign=middle;resizable=0;points=[];" parent="z9f0-zLGg7tkhhjZOtWm-3" vertex="1" connectable="0"><mxGeometry x="-0.0667" y="1" relative="1" as="geometry"><mxPoint as="offset"/></mxGeometry></mxCell><mxCell id="z9f0-zLGg7tkhhjZOtWm-0" value="" style="shape=waypoint;sketch=0;size=6;pointerEvents=1;points=[];fillColor=none;resizable=0;rotatable=0;perimeter=centerPerimeter;snapToPoint=1;dashed=1;align=left;verticalAlign=top;" parent="kbx1OfWRaRbHtbZIPdZr-1" vertex="1"><mxGeometry x="350" y="280" width="40" height="40" as="geometry"/></mxCell><mxCell id="z9f0-zLGg7tkhhjZOtWm-1" value="开始" style="text;html=1;align=center;verticalAlign=middle;resizable=0;points=[];autosize=1;strokeColor=none;" parent="kbx1OfWRaRbHtbZIPdZr-1" vertex="1"><mxGeometry x="350" y="280" width="40" height="20" as="geometry"/></mxCell><mxCell id="2Zp4h0rLKAz4HDLWAaMG-12" value="" style="edgeStyle=orthogonalEdgeStyle;rounded=0;orthogonalLoop=1;jettySize=auto;html=1;" parent="kbx1OfWRaRbHtbZIPdZr-1" source="2Zp4h0rLKAz4HDLWAaMG-10" target="2Zp4h0rLKAz4HDLWAaMG-11" edge="1"><mxGeometry relative="1" as="geometry"/></mxCell><mxCell id="2Zp4h0rLKAz4HDLWAaMG-13" value="1(容量不足扩容)" style="edgeLabel;html=1;align=center;verticalAlign=middle;resizable=0;points=[];" parent="2Zp4h0rLKAz4HDLWAaMG-12" vertex="1" connectable="0"><mxGeometry x="-0.2235" y="-4" relative="1" as="geometry"><mxPoint as="offset"/></mxGeometry></mxCell><mxCell id="2Zp4h0rLKAz4HDLWAaMG-15" value="" style="edgeStyle=orthogonalEdgeStyle;rounded=0;orthogonalLoop=1;jettySize=auto;html=1;" parent="kbx1OfWRaRbHtbZIPdZr-1" source="2Zp4h0rLKAz4HDLWAaMG-10" target="2Zp4h0rLKAz4HDLWAaMG-14" edge="1"><mxGeometry relative="1" as="geometry"/></mxCell><mxCell id="2Zp4h0rLKAz4HDLWAaMG-16" value="2(首次插入进行初始化)" style="edgeLabel;html=1;align=center;verticalAlign=middle;resizable=0;points=[];" parent="2Zp4h0rLKAz4HDLWAaMG-15" vertex="1" connectable="0"><mxGeometry x="-0.4" y="-2" relative="1" as="geometry"><mxPoint x="29" y="-2" as="offset"/></mxGeometry></mxCell><mxCell id="2Zp4h0rLKAz4HDLWAaMG-10" value="1/2" style="rhombus;whiteSpace=wrap;html=1;" parent="kbx1OfWRaRbHtbZIPdZr-1" vertex="1"><mxGeometry x="330" y="390" width="80" height="40" as="geometry"/></mxCell><mxCell id="2Zp4h0rLKAz4HDLWAaMG-18" style="edgeStyle=orthogonalEdgeStyle;rounded=0;orthogonalLoop=1;jettySize=auto;html=1;entryX=0;entryY=0.5;entryDx=0;entryDy=0;" parent="kbx1OfWRaRbHtbZIPdZr-1" source="2Zp4h0rLKAz4HDLWAaMG-11" target="2Zp4h0rLKAz4HDLWAaMG-17" edge="1"><mxGeometry relative="1" as="geometry"><Array as="points"><mxPoint x="90" y="550"/></Array></mxGeometry></mxCell><mxCell id="2Zp4h0rLKAz4HDLWAaMG-11" value="可能存在：&lt;br&gt;1. 超最大值不再扩容&lt;br&gt;2. 扩容到原数组两倍" style="whiteSpace=wrap;html=1;" parent="kbx1OfWRaRbHtbZIPdZr-1" vertex="1"><mxGeometry x="40" y="380" width="120" height="60" as="geometry"/></mxCell><mxCell id="2Zp4h0rLKAz4HDLWAaMG-19" style="edgeStyle=orthogonalEdgeStyle;rounded=0;orthogonalLoop=1;jettySize=auto;html=1;entryX=1;entryY=0.5;entryDx=0;entryDy=0;" parent="kbx1OfWRaRbHtbZIPdZr-1" source="2Zp4h0rLKAz4HDLWAaMG-14" target="2Zp4h0rLKAz4HDLWAaMG-17" edge="1"><mxGeometry relative="1" as="geometry"><Array as="points"><mxPoint x="640" y="550"/></Array></mxGeometry></mxCell><mxCell id="2Zp4h0rLKAz4HDLWAaMG-14" value="1. 使用默认容量16&lt;br&gt;2. 使用初始值容量" style="whiteSpace=wrap;html=1;" parent="kbx1OfWRaRbHtbZIPdZr-1" vertex="1"><mxGeometry x="580" y="380" width="120" height="60" as="geometry"/></mxCell><mxCell id="2Zp4h0rLKAz4HDLWAaMG-21" value="" style="edgeStyle=orthogonalEdgeStyle;rounded=0;orthogonalLoop=1;jettySize=auto;html=1;" parent="kbx1OfWRaRbHtbZIPdZr-1" source="2Zp4h0rLKAz4HDLWAaMG-17" target="2Zp4h0rLKAz4HDLWAaMG-20" edge="1"><mxGeometry relative="1" as="geometry"/></mxCell><mxCell id="2Zp4h0rLKAz4HDLWAaMG-22" value="判断是否需要转移数据" style="edgeLabel;html=1;align=center;verticalAlign=middle;resizable=0;points=[];" parent="2Zp4h0rLKAz4HDLWAaMG-21" vertex="1" connectable="0"><mxGeometry x="-0.0647" y="-3" relative="1" as="geometry"><mxPoint as="offset"/></mxGeometry></mxCell><mxCell id="2Zp4h0rLKAz4HDLWAaMG-17" value="初始化数组" style="whiteSpace=wrap;html=1;" parent="kbx1OfWRaRbHtbZIPdZr-1" vertex="1"><mxGeometry x="310" y="520" width="120" height="60" as="geometry"/></mxCell><mxCell id="2Zp4h0rLKAz4HDLWAaMG-24" value="" style="edgeStyle=orthogonalEdgeStyle;rounded=0;orthogonalLoop=1;jettySize=auto;html=1;" parent="kbx1OfWRaRbHtbZIPdZr-1" source="2Zp4h0rLKAz4HDLWAaMG-20" target="2Zp4h0rLKAz4HDLWAaMG-23" edge="1"><mxGeometry relative="1" as="geometry"/></mxCell><mxCell id="2Zp4h0rLKAz4HDLWAaMG-25" value="遍历老数组每个节点的类型(普通/链表/RB树)" style="edgeLabel;html=1;align=center;verticalAlign=middle;resizable=0;points=[];" parent="2Zp4h0rLKAz4HDLWAaMG-24" vertex="1" connectable="0"><mxGeometry x="-0.0655" relative="1" as="geometry"><mxPoint as="offset"/></mxGeometry></mxCell><mxCell id="2Zp4h0rLKAz4HDLWAaMG-20" value="假如需要转移" style="whiteSpace=wrap;html=1;" parent="kbx1OfWRaRbHtbZIPdZr-1" vertex="1"><mxGeometry x="310" y="660" width="120" height="60" as="geometry"/></mxCell><mxCell id="2Zp4h0rLKAz4HDLWAaMG-27" value="" style="edgeStyle=orthogonalEdgeStyle;rounded=0;orthogonalLoop=1;jettySize=auto;html=1;" parent="kbx1OfWRaRbHtbZIPdZr-1" source="2Zp4h0rLKAz4HDLWAaMG-23" target="2Zp4h0rLKAz4HDLWAaMG-26" edge="1"><mxGeometry relative="1" as="geometry"/></mxCell><mxCell id="2Zp4h0rLKAz4HDLWAaMG-28" value="1(&lt;font color=&quot;#dddddd&quot; face=&quot;fira code medium, monospace&quot;&gt;&lt;span style=&quot;font-size: 13.0667px&quot;&gt;没有&lt;/span&gt;&lt;/font&gt;&lt;span style=&quot;color: rgb(221 , 221 , 221) ; font-family: &amp;#34;fira code medium&amp;#34; , monospace ; font-size: 13.0667px&quot;&gt;叶/&lt;/span&gt;&lt;font color=&quot;#dddddd&quot; face=&quot;fira code medium, monospace&quot;&gt;&lt;span style=&quot;font-size: 13.0667px&quot;&gt;子节点&lt;/span&gt;&lt;/font&gt;)" style="edgeLabel;html=1;align=center;verticalAlign=middle;resizable=0;points=[];" parent="2Zp4h0rLKAz4HDLWAaMG-27" vertex="1" connectable="0"><mxGeometry x="0.3386" y="2" relative="1" as="geometry"><mxPoint x="37" y="-2" as="offset"/></mxGeometry></mxCell><mxCell id="2Zp4h0rLKAz4HDLWAaMG-30" value="2(链表)" style="edgeStyle=orthogonalEdgeStyle;rounded=0;orthogonalLoop=1;jettySize=auto;html=1;" parent="kbx1OfWRaRbHtbZIPdZr-1" source="2Zp4h0rLKAz4HDLWAaMG-23" target="2Zp4h0rLKAz4HDLWAaMG-29" edge="1"><mxGeometry relative="1" as="geometry"/></mxCell><mxCell id="2Zp4h0rLKAz4HDLWAaMG-32" value="" style="edgeStyle=orthogonalEdgeStyle;rounded=0;orthogonalLoop=1;jettySize=auto;html=1;" parent="kbx1OfWRaRbHtbZIPdZr-1" source="2Zp4h0rLKAz4HDLWAaMG-23" target="2Zp4h0rLKAz4HDLWAaMG-31" edge="1"><mxGeometry relative="1" as="geometry"/></mxCell><mxCell id="2Zp4h0rLKAz4HDLWAaMG-34" value="3(RB树)" style="edgeLabel;html=1;align=center;verticalAlign=middle;resizable=0;points=[];" parent="2Zp4h0rLKAz4HDLWAaMG-32" vertex="1" connectable="0"><mxGeometry x="-0.4096" y="-3" relative="1" as="geometry"><mxPoint as="offset"/></mxGeometry></mxCell><mxCell id="2Zp4h0rLKAz4HDLWAaMG-23" value="1/2/3" style="rhombus;whiteSpace=wrap;html=1;" parent="kbx1OfWRaRbHtbZIPdZr-1" vertex="1"><mxGeometry x="330" y="790" width="80" height="40" as="geometry"/></mxCell><mxCell id="2Zp4h0rLKAz4HDLWAaMG-26" value="&lt;pre style=&quot;background-color: #2b2b2b ; color: #a9b7c6 ; font-family: &amp;#34;fira code medium&amp;#34; , monospace ; font-size: 9.8pt&quot;&gt;&lt;pre style=&quot;font-family: &amp;#34;fira code medium&amp;#34; , monospace ; font-size: 9.8pt&quot;&gt;&lt;span style=&quot;color: rgb(221 , 221 , 221)&quot;&gt;计算新位置&lt;/span&gt;&lt;/pre&gt;&lt;pre style=&quot;font-family: &amp;#34;fira code medium&amp;#34; , monospace ; font-size: 9.8pt&quot;&gt;&lt;span style=&quot;color: rgb(221 , 221 , 221)&quot;&gt;e&lt;/span&gt;.&lt;span style=&quot;color: rgb(221 , 221 , 221)&quot;&gt;hash &lt;/span&gt;&lt;span style=&quot;color: rgb(232 , 75 , 148)&quot;&gt;&amp;amp; &lt;/span&gt;&lt;span style=&quot;color: rgb(255 , 255 , 255)&quot;&gt;(&lt;/span&gt;&lt;span style=&quot;color: rgb(221 , 221 , 221)&quot;&gt;newCap &lt;/span&gt;&lt;span style=&quot;color: rgb(232 , 75 , 148)&quot;&gt;- &lt;/span&gt;&lt;span style=&quot;color: rgb(192 , 135 , 231)&quot;&gt;1&lt;/span&gt;&lt;span style=&quot;color: rgb(255 , 255 , 255)&quot;&gt;)&lt;/span&gt;&lt;/pre&gt;&lt;/pre&gt;" style="whiteSpace=wrap;html=1;" parent="kbx1OfWRaRbHtbZIPdZr-1" vertex="1"><mxGeometry y="780" width="180" height="60" as="geometry"/></mxCell><mxCell id="2Zp4h0rLKAz4HDLWAaMG-36" value="通过新增位(0/1)元素分组" style="edgeStyle=orthogonalEdgeStyle;rounded=0;orthogonalLoop=1;jettySize=auto;html=1;entryX=0.5;entryY=0;entryDx=0;entryDy=0;" parent="kbx1OfWRaRbHtbZIPdZr-1" source="2Zp4h0rLKAz4HDLWAaMG-29" target="LvThrZN41DI0wYjCVvhY-0" edge="1"><mxGeometry relative="1" as="geometry"/></mxCell><mxCell id="2Zp4h0rLKAz4HDLWAaMG-29" value="循环遍历链表元素" style="whiteSpace=wrap;html=1;" parent="kbx1OfWRaRbHtbZIPdZr-1" vertex="1"><mxGeometry x="310" y="900" width="120" height="60" as="geometry"/></mxCell><mxCell id="2Zp4h0rLKAz4HDLWAaMG-44" value="" style="edgeStyle=orthogonalEdgeStyle;rounded=0;orthogonalLoop=1;jettySize=auto;html=1;" parent="kbx1OfWRaRbHtbZIPdZr-1" source="2Zp4h0rLKAz4HDLWAaMG-31" target="2Zp4h0rLKAz4HDLWAaMG-43" edge="1"><mxGeometry relative="1" as="geometry"/></mxCell><mxCell id="2Zp4h0rLKAz4HDLWAaMG-45" value="通过新增位(0/1)元素分组" style="edgeLabel;html=1;align=center;verticalAlign=middle;resizable=0;points=[];" parent="2Zp4h0rLKAz4HDLWAaMG-44" vertex="1" connectable="0"><mxGeometry x="-0.0559" y="3" relative="1" as="geometry"><mxPoint as="offset"/></mxGeometry></mxCell><mxCell id="2Zp4h0rLKAz4HDLWAaMG-31" value="&lt;span&gt;循环遍历RB树元素&lt;/span&gt;" style="whiteSpace=wrap;html=1;" parent="kbx1OfWRaRbHtbZIPdZr-1" vertex="1"><mxGeometry x="520" y="780" width="120" height="60" as="geometry"/></mxCell><mxCell id="2Zp4h0rLKAz4HDLWAaMG-38" value="" style="edgeStyle=orthogonalEdgeStyle;rounded=0;orthogonalLoop=1;jettySize=auto;html=1;" parent="kbx1OfWRaRbHtbZIPdZr-1" source="LvThrZN41DI0wYjCVvhY-0" target="2Zp4h0rLKAz4HDLWAaMG-37" edge="1"><mxGeometry relative="1" as="geometry"><mxPoint x="370" y="1290" as="sourcePoint"/></mxGeometry></mxCell><mxCell id="2Zp4h0rLKAz4HDLWAaMG-39" value="数组元素赋值&lt;br&gt;" style="edgeLabel;html=1;align=center;verticalAlign=middle;resizable=0;points=[];" parent="2Zp4h0rLKAz4HDLWAaMG-38" vertex="1" connectable="0"><mxGeometry x="-0.2118" relative="1" as="geometry"><mxPoint as="offset"/></mxGeometry></mxCell><mxCell id="LvThrZN41DI0wYjCVvhY-4" style="edgeStyle=orthogonalEdgeStyle;rounded=0;orthogonalLoop=1;jettySize=auto;html=1;entryX=0.45;entryY=0.425;entryDx=0;entryDy=0;entryPerimeter=0;" parent="kbx1OfWRaRbHtbZIPdZr-1" source="2Zp4h0rLKAz4HDLWAaMG-37" target="2Zp4h0rLKAz4HDLWAaMG-40" edge="1"><mxGeometry relative="1" as="geometry"/></mxCell><mxCell id="2Zp4h0rLKAz4HDLWAaMG-37" value="更新到新数组位置" style="whiteSpace=wrap;html=1;" parent="kbx1OfWRaRbHtbZIPdZr-1" vertex="1"><mxGeometry x="310" y="1220" width="120" height="60" as="geometry"/></mxCell><mxCell id="2Zp4h0rLKAz4HDLWAaMG-40" value="" style="shape=waypoint;size=6;pointerEvents=1;points=[];fillColor=#2a2a2a;resizable=0;rotatable=0;perimeter=centerPerimeter;snapToPoint=1;" parent="kbx1OfWRaRbHtbZIPdZr-1" vertex="1"><mxGeometry x="350" y="1370" width="40" height="40" as="geometry"/></mxCell><mxCell id="2Zp4h0rLKAz4HDLWAaMG-42" value="结束" style="text;html=1;align=center;verticalAlign=middle;resizable=0;points=[];autosize=1;strokeColor=none;" parent="kbx1OfWRaRbHtbZIPdZr-1" vertex="1"><mxGeometry x="350" y="1390" width="40" height="20" as="geometry"/></mxCell><mxCell id="08kq62cG8F-ZmQ7ghfIq-1" value="" style="edgeStyle=orthogonalEdgeStyle;rounded=0;orthogonalLoop=1;jettySize=auto;html=1;" parent="kbx1OfWRaRbHtbZIPdZr-1" source="2Zp4h0rLKAz4HDLWAaMG-43" target="08kq62cG8F-ZmQ7ghfIq-0" edge="1"><mxGeometry relative="1" as="geometry"/></mxCell><mxCell id="08kq62cG8F-ZmQ7ghfIq-2" value="根据分组元素大小判断&lt;br&gt;是否需要取消树化" style="edgeLabel;html=1;align=center;verticalAlign=middle;resizable=0;points=[];" parent="08kq62cG8F-ZmQ7ghfIq-1" vertex="1" connectable="0"><mxGeometry x="0.0539" y="3" relative="1" as="geometry"><mxPoint as="offset"/></mxGeometry></mxCell><mxCell id="2Zp4h0rLKAz4HDLWAaMG-43" value="&lt;span&gt;通过head、tail指针&lt;/span&gt;&lt;br&gt;&lt;span&gt;进行尾部组装链表&lt;/span&gt;" style="whiteSpace=wrap;html=1;" parent="kbx1OfWRaRbHtbZIPdZr-1" vertex="1"><mxGeometry x="800" y="780" width="120" height="60" as="geometry"/></mxCell><mxCell id="LvThrZN41DI0wYjCVvhY-6" value="" style="edgeStyle=orthogonalEdgeStyle;rounded=0;orthogonalLoop=1;jettySize=auto;html=1;" parent="kbx1OfWRaRbHtbZIPdZr-1" source="08kq62cG8F-ZmQ7ghfIq-0" target="LvThrZN41DI0wYjCVvhY-5" edge="1"><mxGeometry relative="1" as="geometry"/></mxCell><mxCell id="LvThrZN41DI0wYjCVvhY-7" value="数组元素赋值" style="edgeLabel;html=1;align=center;verticalAlign=middle;resizable=0;points=[];" parent="LvThrZN41DI0wYjCVvhY-6" vertex="1" connectable="0"><mxGeometry x="-0.1077" y="1" relative="1" as="geometry"><mxPoint as="offset"/></mxGeometry></mxCell><mxCell id="08kq62cG8F-ZmQ7ghfIq-0" value="&lt;pre style=&quot;background-color: #2b2b2b ; color: #a9b7c6 ; font-family: &amp;#34;fira code medium&amp;#34; , monospace ; font-size: 9.8pt&quot;&gt;&lt;span style=&quot;color: #dddddd&quot;&gt;untreeify/treeify&lt;/span&gt;&lt;/pre&gt;" style="whiteSpace=wrap;html=1;" parent="kbx1OfWRaRbHtbZIPdZr-1" vertex="1"><mxGeometry x="1110" y="780" width="120" height="60" as="geometry"/></mxCell><mxCell id="LvThrZN41DI0wYjCVvhY-0" value="通过head、tail指针&lt;br&gt;进行尾部组装链表" style="whiteSpace=wrap;html=1;" parent="kbx1OfWRaRbHtbZIPdZr-1" vertex="1"><mxGeometry x="310" y="1060" width="120" height="60" as="geometry"/></mxCell><mxCell id="LvThrZN41DI0wYjCVvhY-3" value="jdk7 &amp;amp; jdk8 在进行新位置计算时存在区别：&lt;br&gt;jdk7 会重新进行hashcode，并进行重新hash &amp;amp; (length -1)&lt;br&gt;jdk8 则是通过判断新增位(0/1)进行分组：&lt;br&gt;&amp;nbsp; &amp;nbsp; &amp;nbsp; &amp;nbsp; 0 在新数组位置不变为（oldIndex）&lt;br&gt;&amp;nbsp; &amp;nbsp; &amp;nbsp; &amp;nbsp; 1 新数组位置为(oldIndex&lt;span style=&quot;font-family: &amp;#34;fira code medium&amp;#34; , monospace ; font-size: 9.8pt ; color: rgb(221 , 221 , 221)&quot;&gt;&amp;nbsp;&lt;/span&gt;&lt;span style=&quot;font-family: &amp;#34;fira code medium&amp;#34; , monospace ; font-size: 9.8pt ; color: rgb(232 , 75 , 148)&quot;&gt;+&lt;/span&gt;&lt;span style=&quot;font-family: &amp;#34;fira code medium&amp;#34; , monospace ; font-size: 9.8pt ; color: rgb(221 , 221 , 221)&quot;&gt;oldCap&lt;/span&gt;)" style="text;html=1;align=left;verticalAlign=middle;resizable=0;points=[];autosize=1;strokeColor=#f0f0f0;dashed=1;" parent="kbx1OfWRaRbHtbZIPdZr-1" vertex="1"><mxGeometry x="870" y="1075" width="320" height="80" as="geometry"/></mxCell><mxCell id="LvThrZN41DI0wYjCVvhY-9" value="" style="edgeStyle=orthogonalEdgeStyle;rounded=0;orthogonalLoop=1;jettySize=auto;html=1;" parent="kbx1OfWRaRbHtbZIPdZr-1" source="LvThrZN41DI0wYjCVvhY-5" target="LvThrZN41DI0wYjCVvhY-8" edge="1"><mxGeometry relative="1" as="geometry"/></mxCell><mxCell id="LvThrZN41DI0wYjCVvhY-5" value="&lt;span&gt;更新到新数组位置&lt;/span&gt;" style="whiteSpace=wrap;html=1;" parent="kbx1OfWRaRbHtbZIPdZr-1" vertex="1"><mxGeometry x="1360" y="780" width="120" height="60" as="geometry"/></mxCell><mxCell id="LvThrZN41DI0wYjCVvhY-8" value="" style="shape=waypoint;size=6;pointerEvents=1;points=[];fillColor=#2a2a2a;resizable=0;rotatable=0;perimeter=centerPerimeter;snapToPoint=1;" parent="kbx1OfWRaRbHtbZIPdZr-1" vertex="1"><mxGeometry x="1600" y="790" width="40" height="40" as="geometry"/></mxCell><mxCell id="LvThrZN41DI0wYjCVvhY-10" value="结束" style="text;html=1;align=center;verticalAlign=middle;resizable=0;points=[];autosize=1;strokeColor=none;" parent="kbx1OfWRaRbHtbZIPdZr-1" vertex="1"><mxGeometry x="1600" y="770" width="40" height="20" as="geometry"/></mxCell><mxCell id="LvThrZN41DI0wYjCVvhY-11" value="" style="endArrow=none;dashed=1;html=1;dashPattern=1 3;strokeWidth=2;entryX=0.1;entryY=1.067;entryDx=0;entryDy=0;entryPerimeter=0;" parent="kbx1OfWRaRbHtbZIPdZr-1" source="2Zp4h0rLKAz4HDLWAaMG-37" target="LvThrZN41DI0wYjCVvhY-3" edge="1"><mxGeometry width="50" height="50" relative="1" as="geometry"><mxPoint x="670" y="1080" as="sourcePoint"/><mxPoint x="720" y="1030" as="targetPoint"/></mxGeometry></mxCell><mxCell id="LvThrZN41DI0wYjCVvhY-12" value="" style="endArrow=none;dashed=1;html=1;dashPattern=1 3;strokeWidth=2;entryX=0.5;entryY=1;entryDx=0;entryDy=0;exitX=1.019;exitY=0.433;exitDx=0;exitDy=0;exitPerimeter=0;" parent="kbx1OfWRaRbHtbZIPdZr-1" source="LvThrZN41DI0wYjCVvhY-3" target="LvThrZN41DI0wYjCVvhY-5" edge="1"><mxGeometry width="50" height="50" relative="1" as="geometry"><mxPoint x="940" y="970" as="sourcePoint"/><mxPoint x="990" y="920" as="targetPoint"/></mxGeometry></mxCell><mxCell id="LvThrZN41DI0wYjCVvhY-14" value="jdk7 &amp;amp; jdk8在转移数据时的区别：&lt;br&gt;jdk8 尾部插入方式，避免逆序和循环链表导致的死循环&lt;br&gt;jdk7 头部插入方式，会产生逆序和死循环" style="whiteSpace=wrap;html=1;align=left;verticalAlign=top;dashed=1;strokeColor=#f0f0f0;" parent="kbx1OfWRaRbHtbZIPdZr-1" vertex="1"><mxGeometry x="630" y="930" width="320" height="60" as="geometry"/></mxCell><mxCell id="LvThrZN41DI0wYjCVvhY-15" value="" style="endArrow=none;dashed=1;html=1;dashPattern=1 3;strokeWidth=2;exitX=0.5;exitY=0;exitDx=0;exitDy=0;entryX=0.417;entryY=1.017;entryDx=0;entryDy=0;entryPerimeter=0;" parent="kbx1OfWRaRbHtbZIPdZr-1" source="LvThrZN41DI0wYjCVvhY-14" target="2Zp4h0rLKAz4HDLWAaMG-43" edge="1"><mxGeometry width="50" height="50" relative="1" as="geometry"><mxPoint x="860" y="870" as="sourcePoint"/><mxPoint x="910" y="820" as="targetPoint"/></mxGeometry></mxCell><mxCell id="LvThrZN41DI0wYjCVvhY-16" value="" style="endArrow=none;dashed=1;html=1;dashPattern=1 3;strokeWidth=2;exitX=1;exitY=0.5;exitDx=0;exitDy=0;" parent="kbx1OfWRaRbHtbZIPdZr-1" source="LvThrZN41DI0wYjCVvhY-0" edge="1"><mxGeometry width="50" height="50" relative="1" as="geometry"><mxPoint x="740" y="1040" as="sourcePoint"/><mxPoint x="790" y="990" as="targetPoint"/></mxGeometry></mxCell><mxCell id="LvThrZN41DI0wYjCVvhY-17" value="" style="rounded=0;whiteSpace=wrap;html=1;dashed=1;strokeColor=#6F0000;fontColor=#ffffff;fillColor=none;strokeWidth=2;align=left;" parent="kbx1OfWRaRbHtbZIPdZr-1" vertex="1"><mxGeometry x="590" y="890" width="650" height="330" as="geometry"/></mxCell></root></mxGraphModel></diagram></mxfile>